<svg viewBox="0 0 24 24" fill="none" xmlns="http://www.w3.org/2000/svg">
  <rect width="24" height="24" fill="none" />
  <g id="Group" stroke="#8BAA36" stroke-width="2" stroke-linecap="round" stroke-linejoin="round">
    <path id="Vector" d="M1.79883 1.89569V6.98574V7.0884V6.98574C1.79883 8.43906 2.43295 9.72583 3.41613 10.5586C3.89685 10.9658 4.21451 11.5157 4.21451 12.126V20.6223C4.21451 21.5669 5.02618 22.3334 6.02628 22.3334C7.02637 22.3334 7.83804 21.5669 7.83804 20.6223V12.126C7.83804 11.5157 8.15571 10.9658 8.63643 10.5586C9.61961 9.72583 10.2537 8.43906 10.2537 6.98574V1.89569V6.98574" />
    <path id="Vector_2" d="M6.02539 7.50376V1.79999" />
    <path id="Vector_3" d="M22.3322 2.99976C22.3322 2.37007 21.7911 1.85901 21.1243 1.85901H19.9165C17.9151 1.85901 16.293 3.39104 16.293 5.28127V12.1258C16.293 13.6133 17.3039 14.867 18.7087 15.3382V20.6221C18.7087 21.5667 19.5203 22.3333 20.5204 22.3333C21.5205 22.3333 22.3322 21.5667 22.3322 20.6221V15.5481V2.99976Z" />
  </g>
</svg>
