<!-- <svg viewBox="0 0 24 24" fill="none" xmlns="http://www.w3.org/2000/svg">
  <rect fill="none" />
  <g id="logo" stroke="#8BAA36" stroke-width="2" stroke-linecap="round" stroke-linejoin="round">
    <path id="Vector" d="M1.79883 1.89569V6.98574V7.0884V6.98574C1.79883 8.43906 2.43295 9.72583 3.41613 10.5586C3.89685 10.9658 4.21451 11.5157 4.21451 12.126V20.6223C4.21451 21.5669 5.02618 22.3334 6.02628 22.3334C7.02637 22.3334 7.83804 21.5669 7.83804 20.6223V12.126C7.83804 11.5157 8.15571 10.9658 8.63643 10.5586C9.61961 9.72583 10.2537 8.43906 10.2537 6.98574V1.89569V6.98574" />
    <path id="Vector_2" d="M6.02539 7.50376V1.79999" />
    <path id="Vector_3" d="M22.3322 2.99976C22.3322 2.37007 21.7911 1.85901 21.1243 1.85901H19.9165C17.9151 1.85901 16.293 3.39104 16.293 5.28127V12.1258C16.293 13.6133 17.3039 14.867 18.7087 15.3382V20.6221C18.7087 21.5667 19.5203 22.3333 20.5204 22.3333C21.5205 22.3333 22.3322 21.5667 22.3322 20.6221V15.5481V2.99976Z" />
  </g>
</svg> -->

<svg width="68" height="68" viewBox="0 0 68 68" fill="none" xmlns="http://www.w3.org/2000/svg">
<rect width="68" height="68" rx="12" fill="#8BAA36"/>
<path d="M16.4014 16.55V24.5486V24.71V24.5486C16.4014 26.8324 17.3978 28.8545 18.9428 30.1631C19.6983 30.8031 20.1974 31.6671 20.1974 32.6261V45.9775C20.1974 47.4618 21.4729 48.6665 23.0445 48.6665C24.6161 48.6665 25.8916 47.4618 25.8916 45.9775V32.6261C25.8916 31.6671 26.3907 30.8031 27.1462 30.1631C28.6912 28.8545 29.6876 26.8324 29.6876 24.5486V16.55V24.5486" stroke="#FAFAFA" stroke-width="3" stroke-linecap="round" stroke-linejoin="round"/>
<path d="M23.043 25.3627V16.3997" stroke="#FAFAFA" stroke-width="3" stroke-linecap="round" stroke-linejoin="round"/>
<path d="M48.667 18.2854C48.667 17.2958 47.8166 16.4927 46.7689 16.4927H44.8709C41.7258 16.4927 39.1768 18.9002 39.1768 21.8706V32.6263C39.1768 34.9638 40.7654 36.9339 42.9728 37.6743V45.9777C42.9728 47.4619 44.2483 48.6666 45.8199 48.6666C47.3915 48.6666 48.667 47.4619 48.667 45.9777V38.0041V18.2854Z" stroke="#FAFAFA" stroke-width="3" stroke-linecap="round" stroke-linejoin="round"/>
</svg>


